# xmcd
#
# Track frame offsets:
#	150
#	8747
#	22727
#	39072
#	57269
#	76747
#	92551
#	109803
#	126657
#	146772
#	162574
#	179887
#	198170
#	224297
#	244086
#
# Disc length: 3518 seconds
#
# Revision: 1
# Processed by: cddbd v1.5.2PL0 Copyright (c) Steve Scherf et al.
# Submitted via: audiograbber 1.83.01
#
DISCID=c80dbc0f
DTITLE=Keith Richards - Crosseyed Heart
DYEAR=2015
DGENRE=Blues
TTITLE0=Crosseyed Heart
TTITLE1=Heartstopper
TTITLE2=Amnesia
TTITLE3=Robbed Blind
TTITLE4=Trouble
TTITLE5=Love Overdue
TTITLE6=Nothing On Me
TTITLE7=Suspicious
TTITLE8=Blues In The Morning
TTITLE9=Something For Nothing
TTITLE10=Illusion
TTITLE11=Just A Gift
TTITLE12=Goodnight Irene
TTITLE13=Substantial Damage
TTITLE14=Lover's Plea
EXTD=
EXTT0=
EXTT1=
EXTT2=
EXTT3=
EXTT4=
EXTT5=
EXTT6=
EXTT7=
EXTT8=
EXTT9=
EXTT10=
EXTT11=
EXTT12=
EXTT13=
EXTT14=
PLAYORDER=
